<?xml version="1.0" standalone="no"?><!DOCTYPE svg PUBLIC "-//W3C//DTD SVG 1.1//EN" "http://www.w3.org/Graphics/SVG/1.1/DTD/svg11.dtd"><svg t="1596168428032" class="icon" viewBox="0 0 1024 1024" version="1.1" xmlns="http://www.w3.org/2000/svg" p-id="4690" xmlns:xlink="http://www.w3.org/1999/xlink" width="200" height="200"><defs><style type="text/css"></style></defs><path d="M512 157.27104c104.35072 0 201.79968 31.89248 274.39616 89.8048 67.89632 54.16448 105.2928 124.75392 105.2928 198.75328s-37.39136 144.5888-105.2928 198.75328c-72.59648 57.91232-170.04544 89.8048-274.39616 89.8048-49.34656 0-98.85696 36.84352-156.18048 79.50848-9.53856 7.09632-21.55008 16.04096-33.5616 24.59136l0.04096-8.35072c0.384-63.60576 0.77824-129.37216-50.2016-161.19808-88.832-55.45472-139.78112-136.77568-139.78112-223.10912 0-74.00448 37.39136-144.5888 105.2928-198.75328 72.59136-57.9072 170.04032-89.8048 274.39104-89.8048m0-70.87104c-248.83712 0-450.56 160.92672-450.56 359.43424 0 115.03104 67.7376 217.44128 173.12768 283.23328 36.55168 22.81472-4.85376 194.55488 39.5008 207.55968 2.25792 0.66048 4.69504 0.97792 7.31136 0.97792 53.52448 0 178.53952-132.33152 230.62528-132.33152 248.83712 0 450.56-160.92672 450.56-359.43424C962.56 247.3216 760.83712 86.4 512 86.4z" fill="#d81e06" p-id="4691"></path><path d="M660.48 414.09024H363.52a35.84 35.84 0 1 1 0-71.68h296.96a35.84 35.84 0 1 1 0 71.68zM614.4 577.93024H409.6a35.84 35.84 0 1 1 0-71.68h204.8a35.84 35.84 0 1 1 0 71.68z" fill="#d81e06" p-id="4692"></path></svg>